<?xml version="1.0" encoding="utf-8"?>
<!-- Generator: Adobe Illustrator 27.5.0, SVG Export Plug-In . SVG Version: 6.00 Build 0)  -->
<svg version="1.1" xmlns="http://www.w3.org/2000/svg" xmlns:xlink="http://www.w3.org/1999/xlink" x="0px" y="0px"
	 viewBox="0 0 500 500" style="enable-background:new 0 0 500 500;" xml:space="preserve">
<g id="BACKGROUND">
	<rect style="fill:#FFF8EB;" width="500" height="500"/>
</g>
<g id="OBJECTS">
	<g>
		<g>
			<defs>
				<rect id="SVGID_1_" x="79.104" y="332.068" width="119.487" height="113.742"/>
			</defs>
			<clipPath id="SVGID_00000132785539242410137260000009456697079673427338_">
				<use xlink:href="#SVGID_1_"  style="overflow:visible;"/>
			</clipPath>
			<g style="clip-path:url(#SVGID_00000132785539242410137260000009456697079673427338_);">
				<path style="fill:#8242E8;" d="M158.849,452.121c0.452-16.009-0.38-32.054-2.484-47.93c-0.391-2.949-0.891-6.048-2.754-8.368
					c-1.864-2.319-5.562-3.435-7.872-1.56c-1.162,0.943-1.742,2.415-2.184,3.845c-1.45,4.697-1.908,9.699-1.334,14.581
					c0.115-12.179-2.117-24.376-6.538-35.725c-1.072-2.751-2.358-5.569-4.683-7.39c-2.325-1.82-5.977-2.273-8.125-0.247
					c-1.238,1.168-1.756,2.895-2.11,4.56c-1.562,7.357-0.828,15.185,2.075,22.124c-6.264-18.673-14.823-38.629-32.365-47.585
					c-0.997-0.509-2.119-0.989-3.204-0.711c-2.477,0.633-2.444,4.155-1.742,6.614c4.045,14.179,11.661,27.324,21.951,37.885
					c-3.729-2.357-6.776-5.828-10.863-7.49c-4.086-1.662-9.949-0.42-10.981,3.869c-0.663,2.755,0.926,5.514,2.586,7.81
					c5.677,7.852,13.028,14.487,21.418,19.334c-3.657-2.496-7.929-4.087-12.328-4.59c-0.958-0.11-1.973-0.159-2.841,0.261
					c-1.027,0.498-1.659,1.575-1.983,2.669c-1.59,5.371,2.876,10.488,7.036,14.239c11.544,10.411,23.705,20.137,36.398,29.113
					C142.247,454.796,148.908,452.97,158.849,452.121z"/>
				<g>
					<path style="fill:none;stroke:#FEFEFE;stroke-width:0.9898;stroke-miterlimit:10;" d="M97.606,361.742
						c19.716,34.326,39.553,68.915,52.394,106.36"/>
					<path style="fill:none;stroke:#FEFEFE;stroke-width:0.9898;stroke-miterlimit:10;" d="M129.86,379.043
						c-3.023,12.912-3.436,26.429-1.206,39.501c-8.865-9.697-19.653-17.629-31.553-23.199"/>
					<path style="fill:none;stroke:#FEFEFE;stroke-width:0.9898;stroke-miterlimit:10;" d="M149.669,408.662
						c-5.921,9.953-9.579,21.244-10.619,32.779c-2.382-3.166-5.842-5.313-9.232-7.364c-8.169-4.941-16.416-9.753-24.736-14.435"/>
				</g>
			</g>
			<g style="clip-path:url(#SVGID_00000132785539242410137260000009456697079673427338_);">
				<path style="fill:#FB1370;" d="M162.801,441.118c-17.22-27.018-22.596-61.303-14.471-92.294
					c19.743,8.125,32.8,28.261,36.692,49.253s-0.238,42.721-7.02,62.965C172.288,456.436,168.548,450.134,162.801,441.118z"/>
				<g>
					<path style="fill:none;stroke:#FEFEFE;stroke-width:0.9898;stroke-miterlimit:10;" d="M155.164,361.399
						c9.419,31.136,16.693,62.921,21.751,95.054"/>
					<path style="fill:none;stroke:#FEFEFE;stroke-width:0.9898;stroke-miterlimit:10;" d="M151.86,377.058
						c4.054,4.328,7.838,8.908,11.322,13.706c1.152-6.707,2.559-13.37,4.216-19.97"/>
					<path style="fill:none;stroke:#FEFEFE;stroke-width:0.9898;stroke-miterlimit:10;" d="M152.786,399.065
						c5.065,4.233,10.085,8.519,15.059,12.86c2.781-7.341,5.24-14.805,7.368-22.361"/>
					<path style="fill:none;stroke:#FEFEFE;stroke-width:0.9898;stroke-miterlimit:10;" d="M158.559,421.798
						c4.813,3.134,9.376,6.651,13.635,10.504c3.123-6.311,6.069-12.711,8.833-19.188"/>
				</g>
			</g>
		</g>
		<g>
			<path style="fill:#8242E8;" d="M372.742,439.744c13.37-9.808,26.727-21.975,29.925-38.246c0.661-3.363,0.573-7.466-2.225-9.446
				c-2.281-1.613-5.56-1.05-7.831,0.577c-2.271,1.627-3.762,4.098-5.191,6.499c7.397-9.145,13.497-19.336,18.062-30.176
				c2.801-6.653,5.057-13.839,4.114-20.996c-0.943-7.156-5.855-14.21-12.934-15.62c-8.895-1.771-16.995,5.505-22.072,13.021
				c-9.649,14.284-14.472,31.193-19.15,47.783c1.472-5.574,1.979-11.402,1.494-17.147c-0.139-1.647-0.397-3.38-1.433-4.668
				c-1.961-2.438-5.986-2.162-8.465-0.253c-2.479,1.909-3.783,4.933-4.958,7.833c-8.431,20.807-15.404,42.203-20.853,63.982
				C338.744,445.37,359.189,449.687,372.742,439.744z"/>
			<g>
				<path style="fill:none;stroke:#FEFEFE;stroke-width:0.7549;stroke-miterlimit:10;" d="M394.812,348.51
					c-17.565,31.136-33.472,63.207-47.634,96.032"/>
				<path style="fill:none;stroke:#FEFEFE;stroke-width:0.7549;stroke-miterlimit:10;" d="M401.702,362.336
					c-5.114,1.878-9.197,5.759-13.092,9.569c-4.536,4.438-9.03,8.919-13.482,13.441c1.864-9.395,2.133-19.105,0.791-28.589"/>
				<path style="fill:none;stroke:#FEFEFE;stroke-width:0.7549;stroke-miterlimit:10;" d="M346.017,380.459
					c4.03,16.026,6.497,32.445,7.355,48.948c11.524-9.083,23.655-18.451,38.069-21.194"/>
				<path style="fill:none;stroke:#FEFEFE;stroke-width:0.7549;stroke-miterlimit:10;" d="M339.592,416.292
					c0.275,3.033,1.043,6.02,2.264,8.81"/>
				<path style="fill:none;stroke:#FEFEFE;stroke-width:0.7549;stroke-miterlimit:10;" d="M337.412,418.833
					c0.213,1.869,0.426,3.739,0.639,5.608"/>
				<path style="fill:none;stroke:#FEFEFE;stroke-width:0.7549;stroke-miterlimit:10;" d="M388.83,385.724
					c-2.731,2.089-5.312,4.374-7.717,6.831"/>
				<path style="fill:none;stroke:#FEFEFE;stroke-width:0.7549;stroke-miterlimit:10;" d="M387.64,391.48
					c-1.776,1.008-3.445,2.206-4.967,3.566"/>
				<path style="fill:none;stroke:#FEFEFE;stroke-width:0.7549;stroke-miterlimit:10;" d="M385.87,342.756
					c-0.184,1.734-0.367,3.469-0.551,5.203"/>
				<path style="fill:none;stroke:#FEFEFE;stroke-width:0.7549;stroke-miterlimit:10;" d="M383.203,343.157
					c-0.183,1.868-0.366,3.736-0.549,5.604"/>
			</g>
		</g>
	</g>
	<ellipse style="fill:#482480;" cx="250" cy="437.768" rx="193.569" ry="13.478"/>
	<g style="opacity:0.2;">
		<g>
			<path style="fill:#FDBC2F;" d="M86.357,251.903c7.819-28.566,21.976-56.834,46.358-73.649
				c24.382-16.814,60.562-18.743,82.139,1.546c22.684-16.455,40.296-38.772,59.766-58.927c19.471-20.155,42.192-38.932,69.542-45.04
				c27.35-6.108,59.986,4.055,72.163,29.295c7.4,15.339,6.234,33.827-0.135,49.623c-6.368,15.795-17.476,29.238-29.584,41.215
				c-31.571,31.229-70.49,53.889-109.753,74.634c-39.699,20.976-81.571,40.725-126.39,43.411
				c-13.894,0.833-28.267-0.098-40.896-5.948c-12.63-5.85-23.265-17.354-25.136-31.146L86.357,251.903z"/>
		</g>
		<path style="fill:#FDBC2F;" d="M72.228,207.092c4.072-2.139,9.106-0.573,11.245,3.498c2.139,4.071,0.573,9.106-3.498,11.245
			c-4.071,2.139-9.106,0.573-11.245-3.498C66.591,214.266,68.157,209.232,72.228,207.092z"/>
		<path style="fill:#FDBC2F;" d="M427.696,179.052c-2.714,1.426-3.759,4.783-2.332,7.497c1.426,2.714,4.783,3.758,7.497,2.332
			c2.714-1.426,3.758-4.783,2.332-7.497C433.767,178.67,430.41,177.626,427.696,179.052z"/>
	</g>
	<g id="XMLID_00000160910953623786971170000009043743870278692787_">
		<path id="XMLID_00000180358393025227542780000010898815766794894990_" style="fill:#8242E8;" d="M124.885,316.354h14.087v-9.587
			h-16.896C122.596,310.128,123.554,313.342,124.885,316.354z"/>
		<path id="XMLID_00000037661520251257214170000008407029736643089589_" style="fill:#8242E8;" d="M125.404,317.482
			c2.199,4.579,5.29,8.628,9.023,11.933c1.478,0.271,3,0.429,4.545,0.462v-12.396H125.404z"/>
		<path id="XMLID_00000173124155684051959420000013215872345051093689_" style="fill:#8242E8;" d="M122.077,294.924h16.896v-9.587
			h-14.087C123.554,288.348,122.596,291.563,122.077,294.924z"/>
		<path id="XMLID_00000108303431468079066810000004607420982500415131_" style="fill:#8242E8;" d="M115.839,317.482
			c3.812,5.448,9.452,9.531,16.027,11.347c-3.271-3.249-5.967-7.083-7.929-11.347H115.839z"/>
		<path id="XMLID_00000089567308075711933400000006764225262387057302_" style="fill:#8242E8;" d="M120.295,300.845
			c0-1.624,0.113-3.226,0.305-4.794h-9.598c-0.271,1.556-0.406,3.158-0.406,4.794c0,1.635,0.135,3.237,0.406,4.793h9.598
			C120.407,304.071,120.295,302.469,120.295,300.845z"/>
		<path id="XMLID_00000101808444885084766130000013394732666588973191_" style="fill:#8242E8;" d="M120.734,306.767h-9.542
			c0.722,3.463,2.053,6.7,3.903,9.587h8.346C122.156,313.331,121.231,310.116,120.734,306.767z"/>
		<path id="XMLID_00000010291940693819270560000011125980355439730315_" style="fill:#8242E8;" d="M125.404,284.209h13.568v-12.396
			c-1.545,0.034-3.068,0.192-4.545,0.462C130.694,275.581,127.603,279.63,125.404,284.209z"/>
		<path id="XMLID_00000084525232542736661740000011139483386617373062_" style="fill:#8242E8;" d="M131.867,272.862
			c-6.576,1.816-12.215,5.899-16.027,11.347h8.098C125.9,279.945,128.596,276.111,131.867,272.862z"/>
		<path id="XMLID_00000075877214658351747350000004739594692345683389_" style="fill:#8242E8;" d="M123.441,285.337h-8.346
			c-1.85,2.887-3.181,6.124-3.903,9.587h9.542C121.231,291.574,122.156,288.359,123.441,285.337z"/>
		<path id="XMLID_00000037692677167867498420000010848268123690538139_" style="fill:#8242E8;" d="M158.541,294.924h9.542
			c-0.722-3.463-2.053-6.7-3.902-9.587h-8.347C157.12,288.359,158.045,291.574,158.541,294.924z"/>
		<path id="XMLID_00000064334790858576046120000007518469677591137173_" style="fill:#8242E8;" d="M121.626,300.845
			c0,1.624,0.113,3.226,0.304,4.793h17.042v-9.587H121.93C121.738,297.619,121.626,299.221,121.626,300.845z"/>
		<path id="XMLID_00000176005257965701714710000005276680783340599460_" style="fill:#8242E8;" d="M155.834,316.354h8.347
			c1.85-2.887,3.181-6.125,3.902-9.587h-9.542C158.045,310.116,157.12,313.331,155.834,316.354z"/>
		<path id="XMLID_00000162339206275202446970000014464058228576724415_" style="fill:#8242E8;" d="M154.391,285.337h-14.087v9.587
			h16.896C156.68,291.563,155.722,288.348,154.391,285.337z"/>
		<path id="XMLID_00000016037177499118964190000014814394167416895911_" style="fill:#8242E8;" d="M140.303,316.354h14.087
			c1.331-3.012,2.29-6.226,2.808-9.587h-16.896V316.354z"/>
		<path id="XMLID_00000145749657275930774440000009204504099859708807_" style="fill:#8242E8;" d="M140.303,296.052v9.587h17.043
			c0.192-1.568,0.304-3.169,0.304-4.793c0-1.624-0.113-3.226-0.304-4.794H140.303z"/>
		<path id="XMLID_00000084513667948263665990000013469157082468899475_" style="fill:#8242E8;" d="M168.275,296.052h-9.598
			c0.192,1.568,0.305,3.169,0.305,4.794c0,1.624-0.113,3.226-0.305,4.793h9.598c0.271-1.556,0.406-3.158,0.406-4.793
			C168.681,299.21,168.546,297.608,168.275,296.052z"/>
		<path id="XMLID_00000098926526276376763480000017949621946949916054_" style="fill:#8242E8;" d="M153.872,284.209
			c-2.199-4.579-5.29-8.628-9.023-11.933c-1.478-0.271-3-0.429-4.545-0.462v12.396H153.872z"/>
		<path id="XMLID_00000005238430645180903020000005319584336495009463_" style="fill:#8242E8;" d="M147.409,328.828
			c6.576-1.816,12.215-5.899,16.027-11.347h-8.098C153.376,321.745,150.68,325.58,147.409,328.828z"/>
		<path id="XMLID_00000026852166382981865470000013811921071727458206_" style="fill:#8242E8;" d="M163.437,284.209
			c-3.812-5.448-9.452-9.531-16.027-11.347c3.271,3.248,5.967,7.083,7.929,11.347H163.437z"/>
		<path id="XMLID_00000090286298595375754740000002203465830147675286_" style="fill:#8242E8;" d="M153.872,317.482h-13.569v12.396
			c1.545-0.034,3.068-0.192,4.545-0.462C148.582,326.11,151.673,322.061,153.872,317.482z"/>
	</g>
	<g>
		<g>
			<g>
				<path style="fill:#8242E8;" d="M332.846,49.406c0.206,0.033,0.401,0.093,0.606,0.129l-1,5.761
					c-0.18-0.031-0.35-0.084-0.531-0.113c-12.417-1.988-24.485,1.261-33.946,8.111c-9.461,6.85-16.315,17.301-18.303,29.718
					c-0.029,0.185-0.034,0.37-0.061,0.555l-5.786-0.849c0.031-0.21,0.036-0.42,0.07-0.631
					C278.38,64.062,304.82,44.92,332.846,49.406z"/>
				<path style="fill:#8242E8;" d="M330.39,64.743c0.14,0.022,0.264,0.082,0.403,0.107l-0.999,5.758
					c-0.114-0.019-0.214-0.07-0.329-0.087c-8.188-1.311-16.146,0.832-22.39,5.353c-6.24,4.518-10.76,11.41-12.07,19.597
					c-0.019,0.119-0.003,0.233-0.02,0.351l-5.782-0.847c0.021-0.144,0.001-0.285,0.024-0.429
					C292.357,74.967,310.828,61.608,330.39,64.743z"/>
				<path style="fill:#8242E8;" d="M328.087,79.16c0.074,0.011,0.14,0.044,0.213,0.057l-0.999,5.758
					c-0.048-0.008-0.09-0.03-0.139-0.037c-4.213-0.675-8.31,0.429-11.523,2.755c-3.212,2.326-5.54,5.874-6.215,10.087
					c-0.009,0.054-0.002,0.106-0.009,0.16l-5.782-0.848c0.012-0.08,0.001-0.157,0.014-0.237
					C305.507,85.236,316.468,77.3,328.087,79.16z"/>
			</g>
			<path style="fill:#8242E8;" d="M320.801,102.972c1.544,2.133,4.525,2.61,6.658,1.066c2.133-1.544,2.61-4.525,1.066-6.658
				c-1.544-2.133-4.525-2.61-6.658-1.066C319.734,97.858,319.257,100.84,320.801,102.972z"/>
		</g>
	</g>
	<g>
		<g>
			<g>
				<g>
					<path style="fill:#FDBC2F;" d="M249.761,206.273H98.82c-3.205,0-5.803-2.598-5.803-5.804V61.484
						c0-3.205,2.598-5.804,5.804-5.804h150.942c3.205,0,5.804,2.598,5.804,5.804v138.985
						C255.565,203.674,252.967,206.273,249.761,206.273z"/>
					<path style="fill:#F85721;" d="M255.565,75.866H93.016V61.484c0-3.205,2.598-5.804,5.804-5.804h150.942
						c3.205,0,5.804,2.598,5.804,5.804V75.866z"/>
					<g>
						<path style="fill:#FFFFFF;" d="M214.354,66.453c0,2.558-2.074,4.631-4.631,4.631c-2.558,0-4.632-2.074-4.632-4.631
							s2.074-4.632,4.632-4.632C212.281,61.821,214.354,63.895,214.354,66.453z"/>
						<path style="fill:#E7F3FD;" d="M230.248,66.453c0,2.558-2.074,4.631-4.631,4.631c-2.558,0-4.632-2.074-4.632-4.631
							s2.074-4.632,4.632-4.632C228.175,61.821,230.248,63.895,230.248,66.453z"/>
						<path style="fill:#CEDFFB;" d="M246.142,66.453c0,2.558-2.074,4.631-4.632,4.631c-2.558,0-4.632-2.074-4.632-4.631
							s2.074-4.632,4.632-4.632C244.069,61.821,246.142,63.895,246.142,66.453z"/>
					</g>
				</g>
			</g>
		</g>
	</g>
	<g>
		<path style="fill:#FFFDFF;" d="M227.41,145.176h-44.637c-7.196,0-13.029-5.834-13.029-13.029V99.65
			c0-7.196,5.833-13.029,13.029-13.029h44.637c7.196,0,13.029,5.833,13.029,13.029v32.496
			C240.439,139.342,234.606,145.176,227.41,145.176z"/>
		<g>
			<rect x="214.306" y="102.733" style="fill:#FDBC2F;" width="11.829" height="25.379"/>
			<rect x="188.282" y="102.733" style="fill:#FB1370;" width="5.914" height="25.379"/>
			
				<rect x="199.815" y="113.79" style="fill:none;stroke:#8242E8;stroke-width:0.8894;stroke-linecap:round;stroke-miterlimit:10;" width="11.829" height="13.876"/>
			<polyline style="fill:none;stroke:#8242E8;stroke-width:0.8894;stroke-linecap:round;stroke-miterlimit:10;" points="
				180.755,98.894 180.755,130.893 229.428,130.893 			"/>
		</g>
	</g>
	<path style="fill:none;stroke:#F85721;stroke-width:1.5822;stroke-miterlimit:10;" d="M427.967,281.652l2.804-14.995
		c0.286-1.528-0.721-2.999-2.25-3.285l-3.686-0.689c-1.203-0.225-2.117-1.203-2.271-2.418c-0.279-2.212-0.739-4.395-1.377-6.531
		c-0.35-1.173,0.091-2.437,1.101-3.128l3.094-2.119c1.283-0.879,1.61-2.631,0.732-3.914l-8.621-12.586
		c-0.879-1.283-2.631-1.61-3.914-0.732l-3.094,2.119c-1.01,0.692-2.348,0.647-3.315-0.104c-1.762-1.367-3.632-2.585-5.594-3.645
		c-1.077-0.582-1.659-1.787-1.434-2.991l0.689-3.686c0.286-1.528-0.722-2.999-2.25-3.285l-14.995-2.804
		c-1.528-0.286-2.999,0.721-3.285,2.25l-0.689,3.686c-0.225,1.203-1.203,2.117-2.418,2.271c-2.212,0.279-4.394,0.739-6.53,1.377
		c-1.173,0.35-2.437-0.091-3.129-1.101l-2.119-3.094c-0.879-1.283-2.631-1.61-3.914-0.732l-12.586,8.621
		c-1.283,0.879-1.61,2.631-0.732,3.914l2.119,3.093c0.692,1.01,0.647,2.348-0.104,3.315c-1.367,1.762-2.585,3.631-3.645,5.593
		c-0.582,1.077-1.787,1.659-2.991,1.434l-3.685-0.689c-1.528-0.286-2.999,0.721-3.285,2.25l-2.804,14.995
		c-0.286,1.528,0.721,2.999,2.25,3.285l3.685,0.689c1.203,0.225,2.117,1.203,2.271,2.418c0.279,2.212,0.74,4.396,1.378,6.532
		c0.35,1.173-0.091,2.437-1.101,3.129l-3.093,2.119c-1.283,0.879-1.61,2.631-0.732,3.914l8.621,12.586
		c0.879,1.283,2.631,1.611,3.914,0.732l3.094-2.119c1.01-0.692,2.348-0.647,3.315,0.104c1.761,1.366,3.63,2.585,5.592,3.644
		c1.077,0.582,1.659,1.787,1.434,2.991l-0.689,3.686c-0.286,1.528,0.721,2.999,2.25,3.285l14.995,2.804
		c1.528,0.286,2.999-0.722,3.285-2.25l0.689-3.686c0.225-1.203,1.203-2.117,2.418-2.271c2.212-0.279,4.396-0.74,6.533-1.378
		c1.173-0.35,2.437,0.091,3.128,1.101l2.119,3.094c0.879,1.283,2.631,1.61,3.914,0.732l12.586-8.621
		c1.283-0.879,1.611-2.631,0.732-3.914l-2.119-3.094c-0.692-1.01-0.647-2.348,0.104-3.315c1.367-1.762,2.585-3.631,3.644-5.593
		c0.582-1.077,1.787-1.659,2.991-1.434l3.686,0.689C426.211,284.188,427.682,283.181,427.967,281.652z M397.047,287.164
		L397.047,287.164c-5.732,3.926-12.789,5.414-19.618,4.137l0,0c-6.83-1.277-12.872-5.215-16.798-10.947l0,0
		c-3.926-5.732-5.414-12.789-4.137-19.618l0,0c1.277-6.829,5.215-12.872,10.947-16.798v0c5.732-3.926,12.789-5.414,19.618-4.137l0,0
		c6.829,1.277,12.872,5.215,16.798,10.946l0,0c3.926,5.732,5.414,12.789,4.137,19.618l0,0
		C406.716,277.195,402.778,283.238,397.047,287.164z"/>
	<g>
		<g>
			<g>
				<g>
					<path style="fill:#FDBC2F;" d="M178.894,377.154l19.456-21.392l-11.461-11.342c0,0-9.49,8.672-12.538,7.786
						c-3.047-0.885-16.546-9.809-24.403-1.772L178.894,377.154z"/>
					<g>
						<g>
							<path style="fill:#482480;" d="M181.815,373.945c-2.444-2.074-4.875-4.162-7.288-6.27l-7.218-6.349l-7.156-6.418
								c-2.378-2.148-4.738-4.315-7.084-6.498c-0.192-0.178-0.202-0.478-0.024-0.67c0.175-0.188,0.466-0.201,0.658-0.035
								c2.417,2.104,4.821,4.223,7.207,6.361l7.135,6.441l7.073,6.51c2.35,2.178,4.683,4.376,7.002,6.589
								c0.091,0.087,0.094,0.231,0.008,0.322C182.044,374.016,181.906,374.022,181.815,373.945z"/>
						</g>
						<g>
							<path style="fill:#482480;" d="M173.922,366.455c0.998-0.838,2.124-1.437,3.333-1.891c1.206-0.45,2.514-0.674,3.824-0.629
								c0.658,0.005,1.303,0.152,1.946,0.283c0.614,0.233,1.254,0.403,1.803,0.766c0.588,0.289,1.084,0.708,1.588,1.104
								c0.485,0.418,0.89,0.919,1.312,1.385c0.09,0.099,0.082,0.252-0.017,0.342c-0.09,0.081-0.224,0.083-0.315,0.009l-0.026-0.021
								c-0.946-0.765-1.873-1.533-2.964-1.983c-0.521-0.273-1.091-0.406-1.642-0.583c-0.574-0.09-1.139-0.215-1.723-0.202
								c-1.159-0.038-2.327,0.158-3.461,0.496c-1.126,0.348-2.245,0.848-3.26,1.446l-0.021,0.013
								c-0.157,0.092-0.358,0.04-0.451-0.116C173.767,366.733,173.801,366.556,173.922,366.455z"/>
						</g>
						<g>
							<path style="fill:#482480;" d="M161.286,355.237c0.53-1.248,1.217-2.4,1.891-3.559c0.722-1.13,1.43-2.268,2.298-3.308
								c0.118-0.141,0.328-0.16,0.469-0.042c0.116,0.097,0.149,0.256,0.092,0.388c-0.539,1.243-1.237,2.387-1.922,3.54
								c-0.733,1.123-1.453,2.254-2.33,3.289c-0.106,0.125-0.292,0.14-0.417,0.034C161.266,355.492,161.237,355.353,161.286,355.237
								z"/>
						</g>
						<g>
							<path style="fill:#482480;" d="M176.046,356.454c-0.211-0.735-0.269-1.475-0.34-2.215c-0.025-0.741-0.062-1.482,0.055-2.229
								c0.036-0.231,0.253-0.389,0.484-0.353c0.176,0.028,0.309,0.16,0.347,0.323c0.17,0.736,0.185,1.478,0.214,2.219
								c-0.018,0.743-0.024,1.485-0.182,2.233c-0.034,0.161-0.192,0.264-0.353,0.23C176.159,356.64,176.075,356.556,176.046,356.454
								z"/>
						</g>
						<g>
							<path style="fill:#482480;" d="M171.533,355.789c0.035-0.737,0.164-1.463,0.243-2.195c0.141-0.726,0.232-1.456,0.417-2.177
								c0.05-0.195,0.249-0.312,0.443-0.262c0.159,0.041,0.266,0.181,0.273,0.336c0.034,0.744-0.027,1.478-0.038,2.217
								c-0.073,0.733-0.096,1.47-0.212,2.199c-0.05,0.309-0.34,0.52-0.649,0.47C171.721,356.329,171.519,356.074,171.533,355.789z"
								/>
						</g>
						<g>
							<path style="fill:#482480;" d="M167.503,354.248c0.166-0.767,0.47-1.478,0.763-2.195c0.335-0.7,0.657-1.404,1.12-2.053
								c0.089-0.124,0.261-0.153,0.385-0.065c0.086,0.062,0.127,0.164,0.113,0.263c-0.109,0.789-0.358,1.523-0.595,2.261
								c-0.279,0.722-0.547,1.448-0.952,2.119c-0.13,0.215-0.41,0.284-0.624,0.154C167.542,354.63,167.464,354.432,167.503,354.248z
								"/>
						</g>
						<g>
							<path style="fill:#482480;" d="M187.327,359.387c-0.357-0.264-0.821-0.373-1.25-0.289c-0.43,0.086-0.8,0.355-1.021,0.703
								c-0.449,0.718-0.174,1.669,0.452,2.022c0.517,0.497,1.505,0.493,2.066-0.141c0.271-0.311,0.424-0.741,0.385-1.178
								C187.918,360.069,187.682,359.655,187.327,359.387z M187.576,359.053c0.904,0.646,1.2,2.037,0.524,3.023
								c-0.314,0.492-0.845,0.867-1.449,0.99c-0.601,0.125-1.271,0-1.803-0.361c-0.495-0.41-0.806-1.014-0.857-1.627
								c-0.054-0.614,0.155-1.229,0.538-1.67C185.283,358.481,186.7,358.37,187.576,359.053z"/>
						</g>
					</g>
				</g>
				<path id="XMLID_2_" style="fill:#316AC2;" d="M350.699,291.165c-0.568,1.777-1.225,3.482-1.941,5.07
					c-0.881,1.956-1.807,3.796-3.33,5.33c-1.95,1.961-4.677,3.471-7.221,4.538c-6.247,2.621-13.255,3.212-19.963,3.159
					c-16.681-0.133-33.44-4.231-49.157-9.573c-1.927-0.655-3.846-1.338-5.753-2.051l-61.017,65.773L179.792,339.5l70.876-70.746
					c3.971-3.943,9.048-6.575,14.559-7.545c10.321-1.816,20.591-3.849,31.004-5.095c11.957-1.43,24.572-2.377,36.436,0.237
					c8.386,1.848,17.2,6.698,19.413,15.671C353.555,278.005,352.664,285.015,350.699,291.165z"/>
			</g>
			<path style="fill:none;stroke:#FFFFFF;stroke-width:0.5456;stroke-miterlimit:10;" d="M193.122,353.65l65.643-69.802
				c1.181-1.256,2.746-2.083,4.449-2.352l68.487-10.804"/>
			<g>
				<g>
					<path style="fill:#FDBC2F;" d="M283.82,443.387l0.945-28.901l-16.079-1.206c0,0-1.604,12.755-4.498,14.056
						c-2.894,1.301-18.957,3.257-19.73,14.471L283.82,443.387z"/>
					<g>
						<g>
							<path style="fill:#482480;" d="M283.963,439.049c-3.205,0.006-6.41-0.009-9.614-0.049l-9.611-0.155l-9.609-0.247
								c-3.203-0.094-6.405-0.214-9.606-0.355c-0.262-0.012-0.464-0.233-0.453-0.494c0.011-0.256,0.224-0.456,0.479-0.453
								c3.204,0.035,6.408,0.09,9.611,0.172l9.608,0.279l9.605,0.371c3.202,0.135,6.402,0.296,9.603,0.477
								c0.126,0.007,0.222,0.115,0.215,0.24C284.184,438.955,284.083,439.049,283.963,439.049z"/>
						</g>
						<g>
							<path style="fill:#482480;" d="M273.098,438.463c0.217-1.285,0.686-2.471,1.313-3.601c0.627-1.125,1.477-2.143,2.504-2.958
								c0.505-0.423,1.091-0.729,1.665-1.046c0.619-0.221,1.216-0.506,1.869-0.586c0.635-0.161,1.284-0.164,1.925-0.189
								c0.64,0.004,1.273,0.123,1.896,0.204c0.133,0.017,0.226,0.139,0.209,0.271c-0.016,0.12-0.117,0.208-0.234,0.211l-0.033,0.001
								c-1.216,0.031-2.42,0.047-3.542,0.412c-0.574,0.13-1.094,0.398-1.628,0.621c-0.495,0.303-1.007,0.575-1.443,0.963
								c-0.907,0.722-1.67,1.628-2.314,2.621c-0.632,0.995-1.16,2.101-1.544,3.214l-0.008,0.023
								c-0.059,0.172-0.246,0.263-0.418,0.204C273.161,438.776,273.072,438.619,273.098,438.463z"/>
						</g>
						<g>
							<path style="fill:#482480;" d="M256.205,438.113c-0.406-1.294-0.629-2.616-0.868-3.936c-0.183-1.328-0.381-2.654-0.395-4.009
								c-0.002-0.184,0.146-0.334,0.33-0.336c0.151-0.001,0.28,0.098,0.322,0.236c0.395,1.296,0.605,2.62,0.831,3.941
								c0.17,1.33,0.355,2.658,0.358,4.014c0,0.163-0.132,0.296-0.295,0.296C256.355,438.321,256.242,438.233,256.205,438.113z"/>
						</g>
						<g>
							<path style="fill:#482480;" d="M268.232,429.472c-0.637-0.423-1.161-0.948-1.695-1.466c-0.499-0.549-1.008-1.088-1.403-1.733
								c-0.122-0.199-0.06-0.46,0.14-0.582c0.152-0.093,0.339-0.079,0.474,0.021c0.607,0.45,1.099,1.005,1.601,1.551
								c0.468,0.577,0.945,1.146,1.309,1.818c0.078,0.145,0.025,0.325-0.12,0.404C268.438,429.54,268.321,429.531,268.232,429.472z"
								/>
						</g>
						<g>
							<path style="fill:#482480;" d="M264.365,431.891c-0.451-0.583-0.824-1.22-1.238-1.829c-0.363-0.644-0.768-1.259-1.094-1.928
								c-0.088-0.181-0.013-0.399,0.168-0.487c0.147-0.072,0.32-0.035,0.426,0.079c0.507,0.545,0.937,1.143,1.408,1.712
								c0.419,0.605,0.88,1.182,1.264,1.812c0.163,0.267,0.078,0.616-0.19,0.779C264.859,432.18,264.539,432.117,264.365,431.891z"
								/>
						</g>
						<g>
							<path style="fill:#482480;" d="M260.298,433.33c-0.37-0.691-0.6-1.43-0.842-2.166c-0.199-0.75-0.41-1.495-0.478-2.289
								c-0.013-0.152,0.1-0.286,0.252-0.299c0.106-0.009,0.203,0.043,0.257,0.127c0.429,0.672,0.715,1.392,1.013,2.108
								c0.255,0.73,0.522,1.457,0.649,2.231c0.04,0.248-0.128,0.482-0.376,0.522C260.575,433.596,260.387,433.496,260.298,433.33z"
								/>
						</g>
						<g>
							<path style="fill:#482480;" d="M278.723,424.392c-0.443,0.03-0.867,0.248-1.139,0.591c-0.272,0.344-0.379,0.789-0.322,1.197
								c0.124,0.837,0.949,1.383,1.654,1.246c0.716,0.043,1.465-0.6,1.482-1.447c0.005-0.413-0.158-0.84-0.47-1.147
								C279.615,424.527,279.167,424.365,278.723,424.392z M278.697,423.976c1.107-0.094,2.233,0.773,2.359,1.962
								c0.08,0.578-0.081,1.208-0.462,1.693c-0.377,0.485-0.968,0.824-1.607,0.894c-0.642,0.009-1.271-0.25-1.707-0.683
								c-0.439-0.433-0.678-1.036-0.673-1.62C276.58,425.027,277.587,424.024,278.697,423.976z"/>
						</g>
					</g>
				</g>
				<path id="XMLID_1_" style="fill:#3F89FB;" d="M362.516,278.73c0.674,1.74,1.233,3.48,1.673,5.165
					c0.542,2.076,0.977,4.089,0.754,6.239c-0.287,2.75-1.462,5.638-2.772,8.066c-3.217,5.962-8.302,10.822-13.557,14.991
					c-13.068,10.368-28.686,17.699-44.274,23.407c-1.912,0.7-3.833,1.372-5.765,2.015l-5.444,80.254l-32.544-4.472l9.996-90.313
					c0.616-5.562,2.915-10.798,6.597-15.013c6.893-7.893,13.611-15.923,20.935-23.429c8.409-8.619,17.635-17.276,28.511-22.688
					c7.688-3.826,17.594-5.584,24.948,0.012C356.478,266.694,360.185,272.709,362.516,278.73z"/>
			</g>
			<path style="fill:none;stroke:#FFFFFF;stroke-width:0.5456;stroke-miterlimit:10;" d="M278.83,416.902l6.551-86.245
				c0.206-2.708,1.51-5.214,3.611-6.936l63.088-51.698"/>
		</g>
		<g>
			<g>
				<g>
					<path style="fill:#F29159;" d="M282.268,180.578c0,0,24.62,42.211,32.048,43.403c7.428,1.192,63.753-49.293,50.322-60.873
						c0,0-2.24-5.241-7.077-3.15c-4.837,2.091-18.638,6.42-42.847,36.134c0,0-21.922-24.514-23.377-26.897
						c0,0-4.267-13.273-5.085-11.147c-0.818,2.126,1.044,8.014,0.036,7.92c-1.008-0.093-9.116-11.52-10.302-11.073
						c-1.186,0.447,5.048,7.42,4.56,7.498c-0.488,0.079-6.864-6.462-7.566-5.736c-0.702,0.727,5.675,7.267,5.256,7.488
						c-0.419,0.221-6.519-6.109-6.942-5.529c-0.422,0.579,4.296,5.853,4.495,6.997c0,0-5.488-4.69-6.158-3.712
						C268.963,162.881,282.268,180.578,282.268,180.578z"/>
					<path style="fill:#A85222;" d="M284.805,164.522l1.199,6.148c0,0,0.142-4.446,0.597-4.775L284.805,164.522z"/>
					<path style="fill:#482480;" d="M316.897,193.353c0,0,42.421-55.622,57.298-31.808c8.315,13.31-49.016,66.815-59.363,70.344
						l-20.996-27.526l14.197-18.074L316.897,193.353z"/>
					<polygon style="fill:#FB1370;" points="308.034,186.288 293.836,204.362 300.056,213.424 313.421,191.018 					"/>
					<path style="opacity:0.7;fill:#03102A;" d="M374.195,161.544c-4.093-6.551-10.219-5.598-17.062-3.435
						c-3.695,3.477-7.543,6.234-11.311,9.138c-0.036,0.941-0.355,1.934-1.058,2.924c-7.97,11.208-14.633,24.518-24.492,34.153
						c-8.054,7.872-17.103,5.667-24.988,0.355c-0.036,0.049-0.078,0.098-0.109,0.146l19.657,27.063
						C325.18,228.359,382.511,174.854,374.195,161.544z"/>
				</g>
				<g>
					<path style="fill:#8242E8;" d="M411.056,198.06c4.188-14.515-16.416-34.565-16.416-34.565l-8.086-6.824l2.12-0.959
						l-14.066,6.437c-3.138,1.436-5.814,1.278-5.805-2.231l0.667-1.499l0.922-2.79l-5.987-0.149
						c-1.856-0.357-13.174,6.301-17.284,9.757c-4.451,3.742-7.913,8.626-10.028,14.153l-29.253,81.652l57.622,23.307
						C365.463,284.348,404.611,220.399,411.056,198.06z"/>
					
						<line style="fill:none;stroke:#FEFEFE;stroke-width:0.2518;stroke-miterlimit:10;" x1="305.374" y1="251.361" x2="372.626" y2="279.338"/>
					<g>
						<path style="fill:#482480;" d="M386.968,156.98c0,0-5.374,13.662-24.851,42.573c-12.534,18.605-28.553,52.075-36.464,69.186
							c-2.691,5.82,0.03,12.701,5.969,15.117l36.542,14.867c0,0,13.314-32.559,14.59-39.629
							c1.276-7.071,49.016-64.456,23.257-85.439L386.968,156.98z"/>
					</g>
					<g>
						<path style="fill:#482480;" d="M361.608,167.88l-0.773,1.749l-45.96,94.647c-2.992,6.162-9.932,9.338-16.551,7.577
							l-2.669-0.71c0,0,14.06-33.448,18.193-39.989c21.501-44.074,22.472-56.441,26.021-60.116
							c5.484-5.68,17.834-17.255,27.877-15.625L361.608,167.88z"/>
					</g>
				</g>
				<path style="fill:#FFFFFF;" d="M338.067,231.61c-0.528,1.112-0.675,2.153-0.328,2.324c0.347,0.171,1.056-0.591,1.584-1.703
					c0.528-1.112,0.675-2.153,0.328-2.324C339.304,229.735,338.594,230.497,338.067,231.61z"/>
				<g>
					<g>
						<path style="fill:#FDBC2F;" d="M354.619,133.226c1.482-4.485,6.32-6.919,10.805-5.437c4.485,1.482,6.919,6.319,5.437,10.805
							c-1.482,4.485-6.319,6.919-10.805,5.437C355.571,142.548,353.136,137.711,354.619,133.226z"/>
						<path style="fill:none;stroke:#FFFFFF;stroke-width:0.4763;stroke-miterlimit:10;" d="M356.395,133.813
							c1.158-3.504,4.937-5.406,8.441-4.248c3.504,1.158,5.406,4.937,4.248,8.441c-1.158,3.504-4.937,5.406-8.441,4.248
							C357.139,141.096,355.237,137.317,356.395,133.813z"/>
					</g>
					<path style="fill:#03102A;" d="M364.76,101.881c-3.788,1.232-5.759,10.754-3.869,14.953c0.482,1.32,1.238,2.458,2.352,3.171
						c0.514,0.741,1.216,1.55,1.996,1.876c1.754,0.732,4.005-0.778,5.974-2.353c1.938-1.549,5.612,1.001,6.184,1.417l1.537,16.021
						l2.496-0.908l0.129,0.264l0,0l0,0l0.13,0.265l4.463-2.474l0.035-0.118c3.316-11.167,2.232-16.767-0.059-19.979
						C390.363,109.194,371.494,105.39,364.76,101.881z M383.712,134.794l-0.969,0.537c0.688-0.721,1.436-1.069,1.953-1.236
						L383.712,134.794z"/>
					<g>
						<path style="fill:#F29159;" d="M384.596,139.757l0.196,16.402l-5.993,6.647c-2.538,2.338-9.353,9.763-10.694,2.104
							l0.665-3.099l-0.001-12.361l12.655-11.804c0,0,1.934,1.44,2.175,1.962C383.841,140.13,384.596,139.757,384.596,139.757z"/>
						<path style="fill:#A85222;" d="M381.426,137.645l-12.655,11.804c0,0-0.436,2.759,1.695,3.962
							c2.978,1.681,6.417-2.194,9.279-9.269"/>
					</g>
					<g>
						<path style="fill:#F29159;" d="M380.486,134.329c0.141,0.392,0.605,0.508,0.89,0.22c0.967-0.978,4.553-2.61,5.226,1.303
							c0.914,5.315-4.419,4.38-4.848,5.094c-0.868,1.447-4.006,4.369-8.137,6.244c-2.518,1.143-6.85,4.452-9.584,1.704
							c-2.734-2.748-3.067-5.754-2.03-30.618c0,0,0.064,1.228,1.87,1.885c1.806,0.657,2.068-2.123,4.129-2.712
							c1.674-0.478,9.038-0.974,10.995,5.075C379.896,125.303,379.657,132.024,380.486,134.329z"/>
						<g>
							<path style="fill:#FFFFFF;" d="M362.28,137.722c0,0,1.652,0.862,5.699,0.483c0,0-2.166,3.944-3.757,3.345
								C362.63,140.951,362.28,137.722,362.28,137.722z"/>
							<path style="fill:#A85222;" d="M385.108,135.531l-2.827,2.196C382.281,137.727,383.353,132.394,385.108,135.531z"/>
							<path style="fill:#03102A;" d="M365.367,132.137c-0.003,0.795,0.298,1.441,0.672,1.443c0.374,0.001,0.68-0.642,0.683-1.437
								c0.003-0.795-0.298-1.441-0.672-1.442C365.676,130.699,365.37,131.342,365.367,132.137z"/>
							<path style="fill:#03102A;" d="M362.106,131.909c-0.003,0.774,0.29,1.403,0.654,1.404c0.364,0.001,0.662-0.625,0.665-1.399
								c0.003-0.774-0.29-1.402-0.654-1.404C362.407,130.509,362.109,131.135,362.106,131.909z"/>
							<path style="fill:#03102A;" d="M369.928,127.294c0.805,0.588-1.192-3.038-2.288-3.337c-1.095-0.299-1.901,0.949-2.144,1.954
								C365.496,125.911,367.995,125.881,369.928,127.294z"/>
							<path style="fill:#03102A;" d="M361.49,127.954c1.156-0.152,1.986,0.064,1.986,0.064c-0.147-0.953-0.975-2.208-1.979-2.238"
								/>
							<path style="fill:#A85222;" d="M363.822,133.059l-2.386,3.655c-0.027,0.08,0.021,0.167,0.096,0.173l2.601,0.158
								c0.068,0.005,0.125-0.058,0.12-0.135l-0.215-3.813C364.032,132.96,363.866,132.932,363.822,133.059z"/>
						</g>
					</g>
					<g>
						<g>
							<path style="fill:#FDBC2F;" d="M374.321,132.064c1.482-4.485,6.32-6.919,10.805-5.437c4.485,1.482,6.919,6.319,5.437,10.804
								s-6.319,6.919-10.805,5.437C375.273,141.386,372.839,136.549,374.321,132.064z"/>
							<path style="fill:none;stroke:#FFFFFF;stroke-width:0.4763;stroke-miterlimit:10;" d="M376.098,132.651
								c1.158-3.504,4.937-5.406,8.441-4.248c3.504,1.158,5.406,4.937,4.248,8.441c-1.158,3.504-4.937,5.406-8.441,4.248
								C376.842,139.934,374.94,136.155,376.098,132.651z"/>
						</g>
						<path style="fill:none;stroke:#FDBC2F;stroke-width:0.9526;stroke-miterlimit:10;" d="M381.969,126.084
							c0,0-3.328-19.602-4.661-20.724c-1.958-1.648-3.607-0.191-3.607-0.191"/>
					</g>
				</g>
				<g>
					<g>
						<g>
							<path style="fill:#FDBC2F;" d="M381.001,142.927c0.677,13.274-4.956,26.486-15.223,34.978
								c-4.816,3.983-10.514,6.899-16.561,8.477c-1.399,0.365-2.817,0.658-4.247,0.877c-0.792,0.121-1.634,0.069-2.31,0.542
								c-0.996,0.698-1.633,1.997-2.167,3.046c-1.801,3.536-3.043,7.365-4.354,11.101c-0.917,2.613-1.614,5.72-3.424,7.891
								c-3.171,3.801-8.204,7.18-13.131,8.022c-2.661,0.455-5.345-0.185-6.808-2.619c-2.43-4.043-1.499-9.851-0.74-14.204
								c0.078-0.45-0.61-0.643-0.689-0.19c-0.924,5.299-2.462,16.559,5.27,17.777c5.163,0.813,10.745-2.816,14.419-6.067
								c1.779-1.575,3.091-3.189,3.97-5.398c1.539-3.87,2.75-7.863,4.267-11.742c0.725-1.854,1.481-3.739,2.519-5.445
								c0.32-0.526,0.675-1.113,1.166-1.5c0.69-0.544,1.761-0.45,2.593-0.585c6.259-1.018,12.28-3.471,17.512-7.048
								c12.323-8.425,19.413-23.026,18.654-37.911C381.692,142.469,380.977,142.467,381.001,142.927L381.001,142.927z"/>
						</g>
					</g>
					<g>
						<g>
							<path style="fill:#FDBC2F;" d="M357.87,143.443c0.012,4.186-0.262,8.069-1.865,11.981c-1.324,3.231-2.318,6.259-2.459,9.772
								c-0.267,6.636,1.628,14.112-1.884,20.187c-0.231,0.399,0.386,0.759,0.617,0.361c3.457-5.978,1.832-13.223,1.959-19.763
								c0.035-1.825,0.188-3.657,0.636-5.431c0.468-1.852,1.28-3.581,1.988-5.348c1.533-3.827,1.734-7.68,1.723-11.759
								C358.583,142.983,357.869,142.982,357.87,143.443L357.87,143.443z"/>
						</g>
					</g>
				</g>
				<g>
					<g>
						<path style="fill:#F85721;" d="M325.216,211.161l1.01-29.509c0.046-1.345-0.509-2.641-1.514-3.537l-13.533-12.053
							c-1.675-1.504-3.838,0.023-3.815,2.274l-0.252,24.429c-0.023,1.621,0.608,3.165,1.745,4.265l14.125,14.121
							C323.43,211.585,325.201,211.799,325.216,211.161z"/>
						<path style="fill:#FDBC2F;" d="M323.386,211.633l1.043-30.636c0.025-1.03-0.397-2.02-1.158-2.715l-13.619-11.939
							c-1.021-0.895-2.395,0.125-2.453,1.482l-0.213,25.373c0.041,1.733,0.192,2.592,1.412,3.824
							C312.658,201.326,323.375,212.134,323.386,211.633z"/>
						<g>
							<path style="fill:#23215F;" d="M310.183,171.875c0.053,0.427-0.143,0.803-0.438,0.84c-0.295,0.036-0.577-0.281-0.629-0.708
								c-0.053-0.427,0.143-0.803,0.438-0.84C309.848,171.131,310.13,171.448,310.183,171.875z"/>
							<path style="fill:none;stroke:#23215F;stroke-width:0.0809;stroke-miterlimit:10;" d="M310.404,171.848
								c0.075,0.605-0.203,1.137-0.62,1.188c-0.417,0.052-0.816-0.397-0.89-1.001c-0.075-0.605,0.203-1.137,0.62-1.188
								C309.931,170.795,310.33,171.243,310.404,171.848z"/>
						</g>
						<path style="fill:none;stroke:#385887;stroke-width:0.1617;stroke-miterlimit:10;" d="M325.115,182.683l0.057-0.023
							c0.285-0.113,0.591,0.105,0.579,0.411l-0.147,3.731c-0.007,0.169-0.113,0.317-0.27,0.378l-0.002,0.001
							c-0.282,0.109-0.585-0.103-0.577-0.406l0.092-3.709C324.851,182.896,324.957,182.745,325.115,182.683z"/>
						<path style="fill:none;stroke:#385887;stroke-width:0.1617;stroke-miterlimit:10;" d="M324.927,188.003l0.057-0.022
							c0.285-0.113,0.591,0.105,0.579,0.411l-0.147,3.73c-0.007,0.169-0.113,0.317-0.27,0.378l-0.002,0.001
							c-0.282,0.11-0.585-0.103-0.577-0.405l0.092-3.709C324.664,188.216,324.769,188.065,324.927,188.003z"/>
						<polygon style="fill:#030F2A;" points="325.944,192.406 323.488,195.189 325.988,199.835 						"/>
					</g>
					<path style="fill:#F29159;" d="M326.203,198.633l-0.128-7.766c0,0,3.414,6.596,3.396,9.58
						c-0.009,1.569-0.329,3.461-0.329,3.461l15.326,21.888c2.125,2.6,3.59,3.377,5.624,0.229
						c6.184-9.571,24.907-26.537,25.153-26.742l16.603,25.711l-34.943,29.834c-4.1,3.769-12.605,1.007-15.058-3.875
						c-9.098-18.102-27.817-52.122-28.909-54.116c-0.625-1.141-2.15-4.782-1.789-5.187c0.825-0.926,3.993,6.312,3.989,5.903
						c-0.004-0.409-4.427-8.272-3.779-9.036c0.975-1.149,5.753,7.714,5.841,7.86c1.324,2.2-4.896-8.29-4.407-9.24
						c0.489-0.951,3.651,3.624,3.765,3.783c0,0,2.479,4.087,2.811,3.957c0.331-0.13-2.796-10.43-1.702-10.248
						c1.094,0.182,3.439,6.389,4.242,7.973C322.712,194.184,326.208,199.703,326.203,198.633z"/>
					<path style="fill:#03102A;" d="M409.359,204.845l-31.303,57.359c-6.095,11.168-20.988,12.901-28.903,3.363l-12.718-15.325
						L409.359,204.845z"/>
					<path style="fill:#482480;" d="M387.342,182.784c0,0,12.968-16.931,22.477-4.644c9.986,12.903-1.704,47.024-42.01,79.117
						c-9.146,7.283-28.424,2.776-33.395-7.72l-6.411-7.373l14.725-20.46l3.745,4.335L387.342,182.784z"/>
					<path style="fill:#FB1370;" d="M348.756,226.996c-0.205,0.62-12.188,25.087-12.188,25.087l-8.565-9.92l14.725-20.46
						L348.756,226.996z"/>
				</g>
			</g>
			<g>
				<g>
					<g>
						<path style="fill:#FDBC2F;" d="M292.591,148.875l22.49,0.124l5.523,5.982l0.136-24.795c0.005-0.988-0.791-1.794-1.78-1.8
							l-26.255-0.144c-0.989-0.006-1.794,0.791-1.8,1.78l-0.094,17.053C290.805,148.064,291.602,148.87,292.591,148.875z"/>
					</g>
				</g>
				<g>
					<path id="XMLID_00000070090724796072413740000013294441207343636618_" style="fill:#FEFEFE;" d="M309.52,138.299
						c0,1.206,0.978,2.184,2.184,2.184s2.184-0.977,2.184-2.184c0-1.206-0.977-2.184-2.184-2.184S309.52,137.093,309.52,138.299z"/>
					<path id="XMLID_00000030460385390104988260000011309954681409461657_" style="fill:#FEFEFE;" d="M303.638,138.298
						c0,1.206,0.977,2.184,2.184,2.184c1.206,0,2.184-0.977,2.184-2.184c0-1.206-0.977-2.184-2.184-2.184
						C304.616,136.114,303.638,137.092,303.638,138.298z"/>
					<path id="XMLID_00000064321717986093639370000004701940024907697554_" style="fill:#FEFEFE;" d="M297.756,138.297
						c0,1.206,0.977,2.184,2.184,2.184c1.206,0,2.184-0.978,2.184-2.184c0-1.206-0.978-2.184-2.184-2.184
						S297.756,137.091,297.756,138.297z"/>
				</g>
			</g>
		</g>
	</g>
	<g>
		<path id="XMLID_00000178892733439969045320000011136190637693846418_" style="fill:#FB1370;" d="M110.254,257.928H75.779
			c-0.993,0-1.799-0.805-1.799-1.799v-17.122c0-0.993,0.805-1.799,1.799-1.799h34.475c0.993,0,1.799,0.805,1.799,1.799v17.122
			C112.053,257.122,111.247,257.928,110.254,257.928z"/>
		<path id="XMLID_00000074442436834311091290000012841603115781665926_" style="fill:#FDBC2F;" d="M93.016,247.568L73.98,237.66
			c0-0.25,0.203-0.453,0.453-0.453H111.6c0.25,0,0.453,0.203,0.453,0.453L93.016,247.568z"/>
	</g>
	<g>
		<g id="XMLID_00000035527509621099489380000009601115401436795534_">
			<path id="XMLID_00000054256309287614522310000005718829972160800936_" style="fill:#FB1370;" d="M203.232,265.892h-23.985
				c-3.497,0-6.331-2.835-6.331-6.331v-23.985c0-3.497,2.835-6.332,6.332-6.332h23.985c3.497,0,6.331,2.835,6.331,6.331v23.985
				C209.563,263.057,206.729,265.892,203.232,265.892z"/>
		</g>
		<g>
			<path style="fill:#FFFFFF;" d="M204.801,247.568c0,7.49-6.072,13.561-13.562,13.561c-7.49,0-13.562-6.072-13.562-13.561
				c0-7.49,6.072-13.562,13.562-13.562C198.729,234.006,204.801,240.078,204.801,247.568z"/>
			<path style="fill:#FB1370;" d="M188.002,245.96v4.005c0,1.742,1.886,2.831,3.395,1.961l3.471-2.003c1.51-0.871,1.51-3.05,0-3.921
				l-3.471-2.003C189.888,243.128,188.002,244.218,188.002,245.96z"/>
		</g>
	</g>
	<g>
		<defs>
			<rect id="SVGID_00000083084904074817583260000006381477369820865956_" x="98.032" y="55.681" width="127.585" height="150.592"/>
		</defs>
		<clipPath id="SVGID_00000058564406963194221030000013200512611053270160_">
			<use xlink:href="#SVGID_00000083084904074817583260000006381477369820865956_"  style="overflow:visible;"/>
		</clipPath>
		<g style="clip-path:url(#SVGID_00000058564406963194221030000013200512611053270160_);">
			<g>
				<g>
					<path style="fill:#030F2A;" d="M122.202,131.652"/>
					<path style="fill:#482480;" d="M156.974,104.524c5.242-10.412-0.507-14.23-2.289-16.382
						c-4.058-5.557-12.158-9.824-17.763-9.341c0,0-7.423-2.467-13.572,3.676c-0.977,0.976-16.971,12.159,5.412,34.425"/>
					<g>
						<g>
							<path style="fill:#482480;" d="M126.193,82.716c2.488-0.63,2.819-3.074,1.968-5.032c-0.88-2.024-1.635-5.375-4.631-4.317
								c-0.923,0.326-1.666,1.057-2.154,1.906c-1.152,2.002-2.141,0.296-3.605-0.451c-1.829-0.932-4.011,0.351-5.441,1.823
								c-0.745,0.767-1.44,1.635-1.712,2.669c-0.538,2.043,0.675,4.096,1.836,5.862c0.981,1.492,2.108,3.094,3.831,3.564
								c1.332,0.364,2.74-0.037,4.062-0.436c1.173-0.354,2.365-0.716,3.385-1.394c1.02-0.678,1.861-1.731,1.986-2.95"/>
						</g>
						<g>
							<path style="fill:#482480;" d="M141.406,79.859c1.068-1.978,1.269-4.652,3.211-5.784c1.261-0.735,2.836-0.528,4.278-0.298
								c1.714,0.273,3.592,0.639,4.67,1.999c0.607,0.766,0.866,1.744,1.076,2.699c0.277,1.262,0.483,2.629-0.052,3.805
								c-0.684,1.504-2.354,2.25-3.885,2.869c-0.626,0.253-1.316,0.509-1.96,0.306c-0.964-0.305-1.355-1.466-2.171-2.062"/>
						</g>
					</g>
					<path style="fill:#E8A171;" d="M129.67,102.567c-0.119,0.349-0.499,0.531-0.843,0.4c-1.439-0.548-4.258-1.877-6.075,1.753
						c-0.92,1.838-0.171,4.148,1.329,5.09c1.174,0.737,2.993,1.465,3.942,1.304c0.778,1.924-0.508,15.622-1.589,16.721
						c-6.657,6.77-8.259,6.668-8.259,6.668s23.499,36.883,24.132,5.904c0,0,3.067-18.468,3.223-18.44
						c2.215,0.391,10.55,0.436,11.722-15.741c1.086-14.985-9.173-17.741-11.857-18.24C143.129,87.565,135.584,85.26,129.67,102.567z
						"/>
					<path style="fill:#DA8F5D;" d="M145.477,121.997l-6.356-1.399l0.393,0.787C140.694,123.748,143.811,124.068,145.477,121.997
						L145.477,121.997z"/>
					<path style="fill:#482480;" d="M153.127,87.804c1.632,3.065-1.864,11.52-9.012,6.715c-2.553-1.716-5.689,5.386-8.555,6.563
						c-5.06,2.076-6.872,0.946-7.735-1.172C127.825,99.91,142.668,68.161,153.127,87.804z"/>
					<path style="fill:#482480;" d="M152.423,88.291c0,0,1.151,6.052,5.387,10.924C157.811,99.215,161.729,91.217,152.423,88.291z"
						/>
					<g>
						<path style="fill:#DA8F5D;" d="M128.635,106.996c-1.884-6.212-4.516-1.696-4.516-1.696L128.635,106.996z"/>
						<path style="fill:#EB6B54;" d="M143.385,106.81c1.885,0.66,2.879,2.723,2.219,4.608s-2.723,2.879-4.608,2.219
							c-1.885-0.66-2.879-2.723-2.219-4.608C139.436,107.143,141.499,106.15,143.385,106.81z"/>
						<path style="fill:#EB6B54;" d="M155.244,115.303c-1.444-0.863-2.133-2.649-1.555-4.298c0.445-1.272,2.01-1.915,3.247-2.141
							C156.935,108.863,156.764,113.011,155.244,115.303z"/>
						<path d="M145.894,101.885c-0.784,0.245,1.598-0.967,2.549-0.922c0.95,0.045,1.927,0.486,1.888,1.307
							C150.331,102.27,147.778,101.296,145.894,101.885z"/>
						<path d="M157.111,104.888c0.498,0.654-0.039-1.099-0.841-1.612c-0.801-0.513-1.853-0.7-2.296-0.008
							C153.974,103.268,155.916,103.317,157.111,104.888z"/>
						<path d="M148.21,107.447c-0.223,0.827-0.078,1.586,0.323,1.694c0.401,0.108,0.907-0.475,1.13-1.303
							c0.223-0.828,0.078-1.586-0.323-1.694C148.938,106.036,148.433,106.619,148.21,107.447z"/>
						<path d="M153.333,108.586c-0.212,0.79-0.074,1.515,0.309,1.618c0.383,0.103,0.866-0.454,1.079-1.244
							c0.213-0.79,0.074-1.515-0.309-1.618C154.029,107.238,153.546,107.795,153.333,108.586z"/>
						<polygon style="fill:#DA8F5D;" points="151.849,105.77 152.435,111.277 149.857,110.691 						"/>
						<path style="fill:#FFFFFF;" d="M147.894,111.322l5.508,1.172c0,0-1.992,2.813-3.633,1.875
							C148.129,113.431,147.894,111.322,147.894,111.322z"/>
					</g>
					<g>
						<path style="fill:none;stroke:#482480;stroke-width:0.5286;stroke-miterlimit:10;" d="M127.83,80.342
							c0.579-0.725,0.619-1.733,0.571-2.66c-0.099-1.921-0.574-4.017-2.12-5.163c-0.921-0.682-2.153-0.925-3.264-0.642
							c-1.11,0.283-2.077,1.085-2.559,2.124c-0.27,0.582-0.398,1.235-0.77,1.758c-0.7,0.984-2.032,1.23-3.228,1.397"/>
						<path style="fill:none;stroke:#482480;stroke-width:0.5286;stroke-miterlimit:10;" d="M152.292,75.137
							c1.629,0.858,3.417,1.908,3.884,3.688c0.109,0.416,0.137,0.849,0.149,1.279c0.021,0.712,0.003,1.424-0.054,2.134
							c-0.053,0.662-0.147,1.341-0.478,1.917c-0.552,0.959-1.69,1.462-2.794,1.529c-1.104,0.067-2.194-0.237-3.253-0.559"/>
						<path style="fill:none;stroke:#482480;stroke-width:0.5286;stroke-miterlimit:10;" d="M154.093,91.016
							c0.224,1.852-0.624,3.795-2.134,4.891c-1.51,1.096-3.62,1.299-5.311,0.513c-1.56-0.725-2.672-2.163-4.146-3.049
							c-1.643-0.988-3.719-1.225-5.542-0.632"/>
						<path style="fill:none;stroke:#482480;stroke-width:0.5286;stroke-miterlimit:10;" d="M133.554,97.657
							c-1.333,0.631-2.69,1.331-3.621,2.475c-0.931,1.144-1.328,2.849-0.566,4.112c0.528,0.875,1.483,1.376,2.301,1.987
							c0.819,0.611,1.587,1.524,1.438,2.535c-0.194,1.316-1.715,1.889-2.741,2.736c-1.323,1.092-1.927,2.984-1.481,4.641
							c0.251,0.933,0.854,1.814,1.746,2.185c0.892,0.37,2.069,0.093,2.54-0.75"/>
					</g>
				</g>
				<g>
					<path style="fill:#E8A171;" d="M178.842,173.038c0.168,0.709,16.701-16.702,16.701-16.702s14.723-19.466,15.75-18.354
						c1.488,1.612-4.216,10.293-4.216,10.293s0.372,0.992,1.488,1.488c1.116,0.496,1.736,1.24,2.108,2.728
						c0.372,1.488,1.86,2.356,2.108,3.225c0.248,0.868-5.291,7.4-8.433,9.673c0,0-5.352,7.422-12.526,16.39"/>
					<path style="fill:#E8A171;" d="M196.038,156.212c0,0,2.976-8.433,4.216-8.185c1.24,0.248,6.697,2.604,6.573,4.712
						c-0.124,2.108-4.836,0.372-4.836,0.372s0.868,4.713-1.488,5.333C198.146,159.064,196.038,156.212,196.038,156.212z"/>
					<g>
						<path style="fill:#DA8F5D;" d="M203.251,153.658c0,0-0.154,1.259,1.582,1.631c0,0,0.389,2.664,2.621,2.168
							c0,0-0.394,1.288,0.97,1.536C208.424,158.992,202.383,165.439,203.251,153.658z"/>
						<g>
							<path style="fill:#BF5433;" d="M202.247,148.628c1.19,0.386,2.342,0.872,3.49,1.372c0.29,0.12,0.577,0.246,0.856,0.386
								c0.274,0.128,0.579,0.277,0.869,0.495c0.28,0.216,0.592,0.485,0.744,0.957c0.164,0.477-0.056,1.053-0.366,1.332
								c-0.627,0.545-1.263,0.719-1.935,0.861c-0.662,0.115-1.315,0.149-1.948,0.09c-0.312-0.03-0.673-0.052-0.683-0.027
								c0.002-0.023-0.034-0.017-0.017,0.14l0.051,0.461c0.038,0.624,0.108,1.243,0.118,1.873l-0.055,0.01l-0.353-1.828
								l-0.088-0.457c-0.032-0.146-0.042-0.347,0.099-0.469c0.291-0.213,0.63-0.114,0.93-0.135c1.212-0.002,2.55-0.105,3.486-0.913
								c0.219-0.202,0.331-0.508,0.246-0.792c-0.081-0.283-0.303-0.512-0.541-0.698c-0.486-0.37-1.078-0.6-1.618-0.9l-3.309-1.706
								L202.247,148.628z"/>
						</g>
						<g>
							<path style="fill:#BF5433;" d="M207.22,148.046c-0.014,0.295-0.106,0.517-0.209,0.73c-0.104,0.212-0.266,0.371-0.398,0.557
								c-0.189,0.134-0.343,0.301-0.561,0.409c-0.216,0.11-0.443,0.209-0.747,0.238l-0.041-0.038
								c0.615-0.666,1.253-1.311,1.914-1.935L207.22,148.046z"/>
						</g>
						<g>
							<path style="fill:#BF5433;" d="M209.739,151.176c-0.131,0.317-0.317,0.592-0.486,0.886c-0.194,0.271-0.398,0.535-0.608,0.796
								c-0.43,0.513-0.939,0.946-1.444,1.383c-0.562,0.378-1.072,0.762-1.726,1.053c-0.336,0.132-0.718,0.242-1.116,0.189
								c-0.375-0.076-0.758-0.286-0.876-0.635l0.045-0.033c0.417,0.529,1.215,0.428,1.739,0.098
								c0.555-0.328,1.081-0.717,1.593-1.114c1.032-0.787,1.985-1.679,2.838-2.66L209.739,151.176z"/>
						</g>
						<g>
							<path style="fill:#BF5433;" d="M204.894,155.214c0.318,0.684,0.652,1.424,1.164,1.602c0.474,0.199,1.07-0.042,1.602-0.47
								c0.566-0.365,1.07-0.924,1.629-1.414c0.556-0.499,1.112-1.004,1.733-1.466l0.044,0.035c-0.467,0.59-0.954,1.163-1.456,1.723
								c-0.507,0.553-1.011,1.119-1.622,1.574c-0.586,0.426-1.426,0.808-2.143,0.398c-0.695-0.418-0.867-1.258-1.005-1.972
								L204.894,155.214z"/>
						</g>
						<g>
							<path style="fill:#BF5433;" d="M207.643,157.215c0.176,0.391,0.39,0.731,0.619,0.902c0.055,0.044,0.121,0.051,0.157,0.073
								c0.029,0.014,0.08,0.024,0.168,0.039c0.148,0.023,0.305,0.018,0.465-0.006c0.331,0.014,0.651-0.107,1.107-0.167
								c0.217-0.015,0.387-0.013,0.542-0.055c0.18-0.012,0.355-0.119,0.57-0.195l0.042,0.037c-0.249,0.327-0.634,0.557-1.035,0.637
								c-0.385,0.112-0.772,0.279-1.192,0.298c-0.399,0.011-0.881-0.036-1.151-0.392c-0.256-0.337-0.358-0.761-0.347-1.172
								L207.643,157.215z"/>
						</g>
					</g>
				</g>
				<path style="fill:#8242E8;" d="M144.935,133.954c0,0,11.567-0.881,15.011,6.156c3.444,7.037,10.49,34.078,10.49,34.078
					l22.954-18.105l11.316,18.751c0,0-33.345,37.611-42.029,34.916C153.993,207.055,144.835,143.547,144.935,133.954z"/>
				<path style="fill:#E8A171;" d="M159.798,139.836c-3.609-6.735-14.862-5.883-14.862-5.883l6.475,10.215
					C154.201,142.716,156.999,141.276,159.798,139.836z"/>
				<g>
					<path style="fill:#8242E8;" d="M143.793,132.108c1.758,1.758,17.047,30.829,17.411,39.766
						c0.403,9.881-1.815,33.878-1.815,33.878s-51.826,0.403-52.834,0.807c-2.91-26.51-2.307-61.019,4.806-65.222
						c0,0,11.69-11.865,13.711-13.096C125.071,128.241,142.386,138.26,143.793,132.108z"/>
				</g>
				<g>
					<path style="fill:#482480;" d="M114.817,145.145c-1.283,1.286-3.457-3.809-3.457-3.809c-7.113,4.203-7.715,38.712-4.806,65.222
						c1.008-0.403,52.834-0.807,52.834-0.807s0.444-4.808,0.899-11.002C144.703,176.218,130.655,163.463,114.817,145.145z"/>
				</g>
			</g>
		</g>
	</g>
	<g>
		<path style="fill:#E8A171;" d="M159.351,195.967c14.844-13.234,22.888-23.158,24.436-24.927c0.885-1.011,3.228-4.333,2.943-4.806
			c-0.653-1.082-5.451,5.493-5.359,5.087c0.091-0.406,6.314-7.356,5.809-8.243c-0.759-1.332-7.56,6.543-7.681,6.67
			c-1.83,1.927,6.801-7.282,6.499-8.323c-0.301-1.041-4.527,2.888-4.68,3.024c0,0-3.42,3.578-3.733,3.383
			c-0.314-0.194,5.093-9.821,3.928-9.855c-1.164-0.033-5.777,6.521-6.94,7.938c-1.163,1.417-3.319,2.924-4.087,2.904
			c-0.649-0.015,2.959-10.44-1.076-4.198c0,0-2.792,3.799-3.408,6.769c-0.323,1.562-0.396,3.505-0.396,3.505l-12.551,10.821
			L159.351,195.967z"/>
		<path style="fill:#8242E8;" d="M122.748,150.67c0,0-5.417-14.133-11.458-9.287c-10.222,8.2-8.41,41.17,15.971,72.43
			c7.918,10.153,46.597-26.249,46.597-26.249l-12.125-14.551l-21.194,17.259L122.748,150.67z"/>
		<path style="fill:#E8A171;" d="M122.526,150.126c-1.071-2.54-5.91-13.016-11.236-8.743c-4.002,3.211-6.148,10.228-5.828,19.444
			C111.045,157.092,116.74,153.535,122.526,150.126z"/>
	</g>
</g>
</svg>
